<svg xmlns="http://www.w3.org/2000/svg" width="67" height="15" viewBox="0 0 67 15">
    <g fill="#FFF" fill-opacity="0" fill-rule="evenodd">
        <path d="M1.225 0L0 .276v10.876h1.225V0zm.54 7.183l3.397 4.173.961-.757-2.916-3.474L5.73 3.984l-.963-.712-3.002 3.91zM11.632 9.407V7.575h-1.37c-1.385 0-2.012.466-2.012 1.454 0 .8.437 1.25 1.224 1.25.715 0 1.648-.377 2.158-.872m-1.53-2.689h1.53v-.626c0-1.207-.539-1.686-1.56-1.686-.714 0-1.516.218-2.143.509l-.364-.858C8.337 3.62 9.27 3.36 10.1 3.36c1.822 0 2.712.872 2.712 2.792v5.001h-.903l-.147-.843c-.758.61-1.734.96-2.508.96-1.355 0-2.172-.814-2.172-2.182 0-1.555 1.05-2.369 3.018-2.369M19.66 3.272l.962.712-2.522 3.14 2.916 3.476-.962.756-3.397-4.173 3.003-3.911zm-3.543 7.88h-1.224V.277L16.117 0v11.152zM26.525 9.407V7.575h-1.37c-1.386 0-2.012.466-2.012 1.454 0 .8.437 1.25 1.224 1.25.715 0 1.648-.377 2.158-.872m-1.53-2.689h1.53v-.626c0-1.207-.539-1.686-1.56-1.686-.715 0-1.516.218-2.143.509l-.364-.858c.772-.437 1.705-.698 2.536-.698 1.822 0 2.711.872 2.711 2.792v5.001h-.903l-.146-.843c-.758.61-1.734.96-2.508.96-1.355 0-2.172-.814-2.172-2.182 0-1.555 1.05-2.369 3.018-2.369M30.693 7.343c0 1.934.787 2.952 2.143 2.952 1.356 0 2.143-1.018 2.143-2.952s-.787-2.98-2.143-2.98c-1.356 0-2.143 1.046-2.143 2.98m5.554 0c0 2.544-1.268 3.955-3.41 3.955-2.13 0-3.412-1.41-3.412-3.955 0-2.559 1.297-3.984 3.411-3.984 2.128 0 3.411 1.425 3.411 3.984M39.22 4.973v5.132c.422.16.903.204 1.297.204 1.648 0 2.45-1.163 2.45-3.126 0-1.832-.54-2.792-1.881-2.792-.656 0-1.4.262-1.867.582m0 6.092v3.039h-1.225V3.562h.89l.175.61a3.832 3.832 0 0 1 2.347-.814c1.924 0 2.814 1.455 2.814 3.825 0 2.443-1.312 4.114-3.397 4.114-.554 0-1.08-.043-1.604-.232M50.079 9.407V7.575h-1.37c-1.385 0-2.013.466-2.013 1.454 0 .8.438 1.25 1.225 1.25.714 0 1.647-.377 2.158-.872m-1.531-2.689h1.53v-.626c0-1.207-.538-1.686-1.56-1.686-.713 0-1.516.218-2.142.509l-.365-.858c.773-.437 1.706-.698 2.537-.698 1.822 0 2.712.872 2.712 2.792v5.001h-.904l-.146-.843c-.758.61-1.735.96-2.508.96-1.356 0-2.172-.814-2.172-2.182 0-1.555 1.05-2.369 3.018-2.369M57.882 5.874c0-1.047-.612-1.555-1.836-1.555-1.196 0-1.822.508-1.822 1.555 0 1.003.626 1.498 1.836 1.498s1.822-.495 1.822-1.498m-3.382 4.9c-.38.436-.524.828-.524 1.28 0 .857.655 1.309 1.996 1.309 1.415 0 2.304-.51 2.304-1.382 0-.713-.51-1.148-1.487-1.148h-1.662c-.234 0-.438-.015-.627-.059m.131-2.676c-.277.32-.407.627-.407.931 0 .553.32.814 1.15.814h1.575c1.546 0 2.493.757 2.493 1.978 0 1.6-1.297 2.501-3.572 2.501-2.1 0-3.003-.872-3.003-1.977 0-.713.307-1.338.875-1.847a1.314 1.314 0 0 1-.612-1.134c0-.553.248-1.12.802-1.614-.569-.422-.876-1.047-.876-1.876 0-1.555 1.138-2.515 2.99-2.515.83 0 1.326.16 1.822.45l1.195-1.12.686 1.193-1.313.408c.423.45.613.944.613 1.599 0 1.512-1.167 2.443-3.003 2.443a4.23 4.23 0 0 1-1.415-.234M61.796 6.848h3.805c0-1.701-.583-2.486-1.837-2.486-1.268 0-1.924.887-1.968 2.486m5 .087c0 .335-.028.684-.072.858h-4.913c.073 1.658.787 2.472 2.39 2.472.686 0 1.502-.174 2.1-.465l.32.872c-.728.407-1.631.625-2.55.625-2.333 0-3.543-1.352-3.543-3.954 0-2.501 1.21-3.985 3.28-3.985 1.91 0 2.989 1.295 2.989 3.577"/>
    </g>
</svg>
